<?xml version="1.0" encoding="UTF-8"?>
<!-- 七名河 W09 正式单图 · 静态底图（`books#401` S7 · 3b；裁六 `6021566672` 第 1/6 项）
     内容＝世界背景 + 向上单向拓扑（10 节点 / 13 边；主干实线、支路**手工虚线**）。
     底图不含任何随状态变化的元素；节点标签、类型、玩家位置与完成标记由故事侧覆盖层
     按已保存权威事实现算（E5 `6012606197`：src 是 data URL ⇒ 资产内部不可进）。
     本档只用构建链 SVG 白名单允许的元素与属性（支路虚线因白名单无 stroke-dasharray，
     由短线段拼接画出）。
     ★坐标与 `src/ui/map.js` 的 `坐标` **逐点一致**，且圆点带 `id`（`E0`…`E9`）⇒ 故事侧格「③b」**按 id 对齐**核（✗ 不按下标 ✓；`id` 在构建链 SVG 属性白名单内 ✓）。
     来源：本项目为 W09 新绘（非 docs 审稿快照、非外部素材）；许可见同目录 LICENSE；用途＝地图面板底图。 -->
<svg xmlns="http://www.w3.org/2000/svg" viewBox="0 0 320 420" width="320" height="420">
  <title>七名河地图底图：自下而上的单向路线</title>
  <rect x="0" y="0" width="320" height="420" fill="#0d1319"/>
  <line x1="60" y1="392" x2="60" y2="300" stroke="#8fb0c8" stroke-width="3"/>
  <line x1="60.0" y1="392.0" x2="66.4" y2="389.1" stroke="#6b7d8f" stroke-width="2"/>
  <line x1="70.9" y1="387.0" x2="77.3" y2="384.1" stroke="#6b7d8f" stroke-width="2"/>
  <line x1="81.8" y1="382.0" x2="88.2" y2="379.0" stroke="#6b7d8f" stroke-width="2"/>
  <line x1="92.7" y1="377.0" x2="99.1" y2="374.0" stroke="#6b7d8f" stroke-width="2"/>
  <line x1="103.6" y1="371.9" x2="110.0" y2="369.0" stroke="#6b7d8f" stroke-width="2"/>
  <line x1="114.5" y1="366.9" x2="120.9" y2="364.0" stroke="#6b7d8f" stroke-width="2"/>
  <line x1="125.4" y1="361.9" x2="131.8" y2="359.0" stroke="#6b7d8f" stroke-width="2"/>
  <line x1="136.3" y1="356.9" x2="142.7" y2="354.0" stroke="#6b7d8f" stroke-width="2"/>
  <line x1="147.2" y1="351.9" x2="153.6" y2="349.0" stroke="#6b7d8f" stroke-width="2"/>
  <line x1="158.1" y1="346.9" x2="164.5" y2="343.9" stroke="#6b7d8f" stroke-width="2"/>
  <line x1="169.0" y1="341.9" x2="175.4" y2="338.9" stroke="#6b7d8f" stroke-width="2"/>
  <line x1="179.9" y1="336.8" x2="186.3" y2="333.9" stroke="#6b7d8f" stroke-width="2"/>
  <line x1="190.8" y1="331.8" x2="197.2" y2="328.9" stroke="#6b7d8f" stroke-width="2"/>
  <line x1="201.7" y1="326.8" x2="208.1" y2="323.9" stroke="#6b7d8f" stroke-width="2"/>
  <line x1="212.6" y1="321.8" x2="219.0" y2="318.9" stroke="#6b7d8f" stroke-width="2"/>
  <line x1="223.5" y1="316.8" x2="229.9" y2="313.9" stroke="#6b7d8f" stroke-width="2"/>
  <line x1="234.4" y1="311.8" x2="240.8" y2="308.8" stroke="#6b7d8f" stroke-width="2"/>
  <line x1="245.3" y1="306.7" x2="251.7" y2="303.8" stroke="#6b7d8f" stroke-width="2"/>
  <line x1="256.2" y1="301.7" x2="260.0" y2="300.0" stroke="#6b7d8f" stroke-width="2"/>
  <line x1="60.0" y1="324.0" x2="60.0" y2="317.0" stroke="#6b7d8f" stroke-width="2"/>
  <line x1="60.0" y1="312.0" x2="60.0" y2="305.0" stroke="#6b7d8f" stroke-width="2"/>
  <line x1="60.0" y1="300.0" x2="60.0" y2="293.0" stroke="#6b7d8f" stroke-width="2"/>
  <line x1="60.0" y1="288.0" x2="60.0" y2="281.0" stroke="#6b7d8f" stroke-width="2"/>
  <line x1="60.0" y1="276.0" x2="60.0" y2="269.0" stroke="#6b7d8f" stroke-width="2"/>
  <line x1="60.0" y1="264.0" x2="60.0" y2="257.0" stroke="#6b7d8f" stroke-width="2"/>
  <line x1="60.0" y1="252.0" x2="60.0" y2="245.0" stroke="#6b7d8f" stroke-width="2"/>
  <line x1="60.0" y1="240.0" x2="60.0" y2="233.0" stroke="#6b7d8f" stroke-width="2"/>
  <line x1="60" y1="324" x2="160" y2="232" stroke="#8fb0c8" stroke-width="3"/>
  <line x1="260.0" y1="324.0" x2="254.8" y2="319.3" stroke="#6b7d8f" stroke-width="2"/>
  <line x1="251.2" y1="315.9" x2="246.0" y2="311.1" stroke="#6b7d8f" stroke-width="2"/>
  <line x1="242.3" y1="307.8" x2="237.2" y2="303.0" stroke="#6b7d8f" stroke-width="2"/>
  <line x1="233.5" y1="299.6" x2="228.4" y2="294.9" stroke="#6b7d8f" stroke-width="2"/>
  <line x1="224.7" y1="291.5" x2="219.5" y2="286.8" stroke="#6b7d8f" stroke-width="2"/>
  <line x1="215.8" y1="283.4" x2="210.7" y2="278.6" stroke="#6b7d8f" stroke-width="2"/>
  <line x1="207.0" y1="275.3" x2="201.9" y2="270.5" stroke="#6b7d8f" stroke-width="2"/>
  <line x1="198.2" y1="267.1" x2="193.0" y2="262.4" stroke="#6b7d8f" stroke-width="2"/>
  <line x1="189.4" y1="259.0" x2="184.2" y2="254.3" stroke="#6b7d8f" stroke-width="2"/>
  <line x1="180.5" y1="250.9" x2="175.4" y2="246.1" stroke="#6b7d8f" stroke-width="2"/>
  <line x1="171.7" y1="242.8" x2="166.5" y2="238.0" stroke="#6b7d8f" stroke-width="2"/>
  <line x1="162.9" y1="234.6" x2="160.0" y2="232.0" stroke="#6b7d8f" stroke-width="2"/>
  <line x1="260.0" y1="324.0" x2="260.0" y2="317.0" stroke="#6b7d8f" stroke-width="2"/>
  <line x1="260.0" y1="312.0" x2="260.0" y2="305.0" stroke="#6b7d8f" stroke-width="2"/>
  <line x1="260.0" y1="300.0" x2="260.0" y2="293.0" stroke="#6b7d8f" stroke-width="2"/>
  <line x1="260.0" y1="288.0" x2="260.0" y2="281.0" stroke="#6b7d8f" stroke-width="2"/>
  <line x1="260.0" y1="276.0" x2="260.0" y2="269.0" stroke="#6b7d8f" stroke-width="2"/>
  <line x1="260.0" y1="264.0" x2="260.0" y2="257.0" stroke="#6b7d8f" stroke-width="2"/>
  <line x1="260.0" y1="252.0" x2="260.0" y2="245.0" stroke="#6b7d8f" stroke-width="2"/>
  <line x1="260.0" y1="240.0" x2="260.0" y2="233.0" stroke="#6b7d8f" stroke-width="2"/>
  <line x1="60.0" y1="256.0" x2="65.2" y2="251.3" stroke="#6b7d8f" stroke-width="2"/>
  <line x1="68.8" y1="247.9" x2="74.0" y2="243.1" stroke="#6b7d8f" stroke-width="2"/>
  <line x1="77.7" y1="239.8" x2="82.8" y2="235.0" stroke="#6b7d8f" stroke-width="2"/>
  <line x1="86.5" y1="231.6" x2="91.6" y2="226.9" stroke="#6b7d8f" stroke-width="2"/>
  <line x1="95.3" y1="223.5" x2="100.5" y2="218.8" stroke="#6b7d8f" stroke-width="2"/>
  <line x1="104.2" y1="215.4" x2="109.3" y2="210.6" stroke="#6b7d8f" stroke-width="2"/>
  <line x1="113.0" y1="207.3" x2="118.1" y2="202.5" stroke="#6b7d8f" stroke-width="2"/>
  <line x1="121.8" y1="199.1" x2="127.0" y2="194.4" stroke="#6b7d8f" stroke-width="2"/>
  <line x1="130.6" y1="191.0" x2="135.8" y2="186.3" stroke="#6b7d8f" stroke-width="2"/>
  <line x1="139.5" y1="182.9" x2="144.6" y2="178.1" stroke="#6b7d8f" stroke-width="2"/>
  <line x1="148.3" y1="174.8" x2="153.5" y2="170.0" stroke="#6b7d8f" stroke-width="2"/>
  <line x1="157.1" y1="166.6" x2="160.0" y2="164.0" stroke="#6b7d8f" stroke-width="2"/>
  <line x1="160" y1="256" x2="160" y2="164" stroke="#8fb0c8" stroke-width="3"/>
  <line x1="160.0" y1="256.0" x2="165.2" y2="251.3" stroke="#6b7d8f" stroke-width="2"/>
  <line x1="168.8" y1="247.9" x2="174.0" y2="243.1" stroke="#6b7d8f" stroke-width="2"/>
  <line x1="177.7" y1="239.8" x2="182.8" y2="235.0" stroke="#6b7d8f" stroke-width="2"/>
  <line x1="186.5" y1="231.6" x2="191.6" y2="226.9" stroke="#6b7d8f" stroke-width="2"/>
  <line x1="195.3" y1="223.5" x2="200.5" y2="218.8" stroke="#6b7d8f" stroke-width="2"/>
  <line x1="204.2" y1="215.4" x2="209.3" y2="210.6" stroke="#6b7d8f" stroke-width="2"/>
  <line x1="213.0" y1="207.3" x2="218.1" y2="202.5" stroke="#6b7d8f" stroke-width="2"/>
  <line x1="221.8" y1="199.1" x2="227.0" y2="194.4" stroke="#6b7d8f" stroke-width="2"/>
  <line x1="230.6" y1="191.0" x2="235.8" y2="186.3" stroke="#6b7d8f" stroke-width="2"/>
  <line x1="239.5" y1="182.9" x2="244.6" y2="178.1" stroke="#6b7d8f" stroke-width="2"/>
  <line x1="248.3" y1="174.8" x2="253.5" y2="170.0" stroke="#6b7d8f" stroke-width="2"/>
  <line x1="257.1" y1="166.6" x2="260.0" y2="164.0" stroke="#6b7d8f" stroke-width="2"/>
  <line x1="260.0" y1="256.0" x2="260.0" y2="249.0" stroke="#6b7d8f" stroke-width="2"/>
  <line x1="260.0" y1="244.0" x2="260.0" y2="237.0" stroke="#6b7d8f" stroke-width="2"/>
  <line x1="260.0" y1="232.0" x2="260.0" y2="225.0" stroke="#6b7d8f" stroke-width="2"/>
  <line x1="260.0" y1="220.0" x2="260.0" y2="213.0" stroke="#6b7d8f" stroke-width="2"/>
  <line x1="260.0" y1="208.0" x2="260.0" y2="201.0" stroke="#6b7d8f" stroke-width="2"/>
  <line x1="260.0" y1="196.0" x2="260.0" y2="189.0" stroke="#6b7d8f" stroke-width="2"/>
  <line x1="260.0" y1="184.0" x2="260.0" y2="177.0" stroke="#6b7d8f" stroke-width="2"/>
  <line x1="260.0" y1="172.0" x2="260.0" y2="165.0" stroke="#6b7d8f" stroke-width="2"/>
  <line x1="160" y1="188" x2="160" y2="96" stroke="#8fb0c8" stroke-width="3"/>
  <line x1="260.0" y1="188.0" x2="254.8" y2="183.3" stroke="#6b7d8f" stroke-width="2"/>
  <line x1="251.2" y1="179.9" x2="246.0" y2="175.1" stroke="#6b7d8f" stroke-width="2"/>
  <line x1="242.3" y1="171.8" x2="237.2" y2="167.0" stroke="#6b7d8f" stroke-width="2"/>
  <line x1="233.5" y1="163.6" x2="228.4" y2="158.9" stroke="#6b7d8f" stroke-width="2"/>
  <line x1="224.7" y1="155.5" x2="219.5" y2="150.8" stroke="#6b7d8f" stroke-width="2"/>
  <line x1="215.8" y1="147.4" x2="210.7" y2="142.6" stroke="#6b7d8f" stroke-width="2"/>
  <line x1="207.0" y1="139.3" x2="201.9" y2="134.5" stroke="#6b7d8f" stroke-width="2"/>
  <line x1="198.2" y1="131.1" x2="193.0" y2="126.4" stroke="#6b7d8f" stroke-width="2"/>
  <line x1="189.4" y1="123.0" x2="184.2" y2="118.3" stroke="#6b7d8f" stroke-width="2"/>
  <line x1="180.5" y1="114.9" x2="175.4" y2="110.1" stroke="#6b7d8f" stroke-width="2"/>
  <line x1="171.7" y1="106.8" x2="166.5" y2="102.0" stroke="#6b7d8f" stroke-width="2"/>
  <line x1="162.9" y1="98.6" x2="160.0" y2="96.0" stroke="#6b7d8f" stroke-width="2"/>
  <line x1="160" y1="120" x2="160" y2="28" stroke="#8fb0c8" stroke-width="3"/>
  <circle id="E0" cx="60" cy="380" r="12" fill="#16202b" stroke="#8fa8bd" stroke-width="2"/>
  <circle id="E1" cx="60" cy="312" r="12" fill="#16202b" stroke="#8fa8bd" stroke-width="2"/>
  <circle id="E2" cx="260" cy="312" r="12" fill="#16202b" stroke="#8fa8bd" stroke-width="2"/>
  <circle id="E3" cx="60" cy="244" r="12" fill="#16202b" stroke="#8fa8bd" stroke-width="2"/>
  <circle id="E4" cx="160" cy="244" r="12" fill="#16202b" stroke="#8fa8bd" stroke-width="2"/>
  <circle id="E5" cx="260" cy="244" r="12" fill="#16202b" stroke="#8fa8bd" stroke-width="2"/>
  <circle id="E6" cx="160" cy="176" r="12" fill="#16202b" stroke="#8fa8bd" stroke-width="2"/>
  <circle id="E7" cx="260" cy="176" r="12" fill="#16202b" stroke="#8fa8bd" stroke-width="2"/>
  <circle id="E8" cx="160" cy="108" r="12" fill="#16202b" stroke="#8fa8bd" stroke-width="2"/>
  <circle id="E9" cx="160" cy="40" r="12" fill="#16202b" stroke="#8fa8bd" stroke-width="2"/>
</svg>
