<svg xmlns="http://www.w3.org/2000/svg" width="768" height="1024" viewBox="0 0 768 1024"><circle cx="352" cy="910" r="13" fill="#4c827e" stroke="#342d2a" stroke-width="2"/><path d="M345 910 l5 5 l10 -11" fill="none" stroke="#ead5a4" stroke-width="3" stroke-linecap="round" stroke-linejoin="round" /><circle cx="224" cy="740" r="13" fill="#4c827e" stroke="#342d2a" stroke-width="2"/><path d="M217 740 l5 5 l10 -11" fill="none" stroke="#ead5a4" stroke-width="3" stroke-linecap="round" stroke-linejoin="round" /><circle cx="352" cy="550" r="13" fill="#4c827e" stroke="#342d2a" stroke-width="2"/><path d="M345 550 l5 5 l10 -11" fill="none" stroke="#ead5a4" stroke-width="3" stroke-linecap="round" stroke-linejoin="round" /><circle cx="542" cy="740" r="13" fill="#ead5a4" stroke="#342d2a" stroke-width="2"/><path d="M536 734 l12 12 M548 734 l-12 12" fill="none" stroke="#9b4636" stroke-width="3" stroke-linecap="round" stroke-linejoin="round" /><circle cx="150" cy="550" r="13" fill="#ead5a4" stroke="#342d2a" stroke-width="2"/><path d="M144 544 l12 12 M156 544 l-12 12" fill="none" stroke="#9b4636" stroke-width="3" stroke-linecap="round" stroke-linejoin="round" /><circle cx="678" cy="550" r="13" fill="#ead5a4" stroke="#342d2a" stroke-width="2"/><path d="M672 544 l12 12 M684 544 l-12 12" fill="none" stroke="#9b4636" stroke-width="3" stroke-linecap="round" stroke-linejoin="round" /><circle cx="542" cy="360" r="13" fill="#ead5a4" stroke="#342d2a" stroke-width="2"/><path d="M536 354 l12 12 M548 354 l-12 12" fill="none" stroke="#9b4636" stroke-width="3" stroke-linecap="round" stroke-linejoin="round" /><circle cx="256" cy="390" r="42" fill="none" stroke="#9b4636" stroke-width="4"/><line x1="256" y1="426" x2="256" y2="436" stroke="#9b4636" stroke-width="3" stroke-linecap="round" /><g transform="translate(235 424) scale(.328125)"><circle cx="64" cy="64" r="57" fill="#ead5a4" stroke="#342d2a" stroke-width="5"/><circle cx="64" cy="64" r="48" fill="none" stroke="#c4943d" stroke-width="2"/><circle cx="64" cy="42" r="14" fill="#c59b57" stroke="#342d2a" stroke-width="3"/><path d="M43 60 L85 60 L94 99 L34 99Z" fill="#9b4636" stroke="#342d2a" stroke-width="4" stroke-linecap="round" stroke-linejoin="round" /><line x1="64" y1="63" x2="64" y2="97" stroke="#ead5a4" stroke-width="3" stroke-linecap="round" /></g></svg>